<?xml version="1.0" encoding="utf-8"?>
<!-- Generator: Adobe Illustrator 24.3.0, SVG Export Plug-In . SVG Version: 6.00 Build 0)  -->
<svg version="1.1" id="Capa_1" xmlns="http://www.w3.org/2000/svg" xmlns:xlink="http://www.w3.org/1999/xlink" x="0px" y="0px"
	 viewBox="0 0 512 320" style="enable-background:new 0 0 512 320;" xml:space="preserve">
<style type="text/css">
	.st0{fill:#5EC3B5;}
</style>
<g>
	<g>
		<g>
			<path class="st0" d="M215.9,148.2c10.9-5.4,19.2-11.6,24.8-18.1c10-11.9,15-27.6,15-47.2c0-19-4.9-35.3-14.9-48.8
				C224.3,12,196.3,0.6,156.7,0H0v319.9h146.2c16.5,0,31.7-1.4,45.8-4.3c14.1-2.9,26.3-8.3,36.6-16.1c9.2-6.8,16.8-15.2,23-25.1
				c9.6-15.1,14.5-32.1,14.5-51c0-18.3-4.2-34-12.6-46.8C244.9,163.6,232.5,154.3,215.9,148.2z M64.7,55.6h70.6
				c15.5,0,28.3,1.6,38.3,5c11.6,4.8,17.4,14.7,17.4,29.6c0,13.4-4.4,22.8-13.2,28.1c-8.8,5.3-20.3,7.9-34.3,7.9H64.7V55.6z
				 M176.3,258.7c-7.8,3.8-18.8,5.6-32.9,5.6H64.7v-85.3h79.9c13.9,0.1,24.7,1.9,32.5,5.3c13.7,6.3,20.6,17.6,20.6,34.3
				C197.6,238.5,190.6,251.8,176.3,258.7z"/>
			<rect x="327.2" y="14.6" class="st0" width="135.6" height="38.8"/>
			<path class="st0" d="M509.9,167.9c-2.8-18.1-9-34-18.7-47.7c-10.6-15.6-24-26.9-40.4-34.1c-16.3-7.2-34.6-10.8-55-10.8
				c-34.3,0-62.1,10.7-83.6,32s-32.2,52-32.2,92c0,42.7,11.9,73.5,35.7,92.4c23.8,18.9,51.2,28.4,82.4,28.4
				c37.7,0,67.1-11.2,88-33.6c13.4-14.1,21-28.1,22.7-41.7h-62.5c-3.6,6.8-7.8,12-12.6,15.9c-8.7,7-20,10.6-33.9,10.6
				c-13.2,0-24.4-2.9-33.8-8.7c-15.4-9.3-23.5-25.5-24.5-48.7H512C512.2,193.8,511.5,178.4,509.9,167.9z M343,173.9
				c2.2-15,7.7-26.9,16.3-35.7c8.6-8.8,20.9-13.2,36.5-13.2c14.4,0,26.5,4.1,36.3,12.4c9.7,8.4,15.2,20.5,16.3,36.5H343z"/>
		</g>
	</g>
</g>
</svg>
