<?xml version="1.0" encoding="utf-8"?>
<!-- Generator: Adobe Illustrator 24.3.0, SVG Export Plug-In . SVG Version: 6.00 Build 0)  -->
<svg version="1.1" id="Capa_1" xmlns="http://www.w3.org/2000/svg" xmlns:xlink="http://www.w3.org/1999/xlink" x="0px" y="0px"
	 viewBox="0 0 212.4 207.4" style="enable-background:new 0 0 212.4 207.4;" xml:space="preserve">
<style type="text/css">
	.st0{opacity:0.36;}
	.st1{fill:#FFFFFF;}
	.st2{fill:url(#SVGID_1_);}
	.st3{fill:url(#SVGID_2_);}
</style>
<g>
	<g class="st0">
		<path class="st1" d="M204,102c0.2,25.5-10.1,50.8-28,69.1c-8.9,9.2-19.6,16.7-31.4,21.9c-11.8,5.2-24.7,8-37.7,8.3
			c-13,0.3-26.1-2-38.3-6.8c-12.2-4.8-23.5-12-33-21.2c-9.4-9.2-17.1-20.3-22.2-32.5c-5.1-12.2-7.8-25.5-7.8-38.7
			c0.1-13.3,2.7-26.5,7.9-38.7C18.6,51.1,26.3,40,35.7,30.8c9.5-9.2,20.8-16.4,33-21.2C80.9,4.8,94,2.6,107,2.8
			c13,0.3,25.9,3.1,37.7,8.3c11.8,5.2,22.5,12.7,31.4,21.9C193.9,51.2,204.2,76.6,204,102z M203.5,102c0-12.6-2.5-25.3-7.4-37
			c-4.8-11.7-12-22.4-21-31.3c-8.9-8.9-19.6-16.1-31.3-20.9C132.2,8,119.6,5.5,107,5.5c-12.6,0-25.3,2.5-36.9,7.4
			c-11.7,4.8-22.3,12-31.3,20.9c-8.9,8.9-16.1,19.6-20.9,31.3c-4.8,11.7-7.3,24.3-7.3,36.9c0,12.6,2.5,25.2,7.3,36.9
			c4.8,11.7,12,22.4,20.9,31.3c8.9,8.9,19.6,16.1,31.3,20.9c11.7,4.9,24.3,7.3,36.9,7.4c12.6,0,25.3-2.5,36.9-7.3
			c11.7-4.8,22.4-12,31.3-20.9c8.9-8.9,16.1-19.6,21-31.3C201,127.3,203.5,114.7,203.5,102z"/>
	</g>
	<g>
		<linearGradient id="SVGID_1_" gradientUnits="userSpaceOnUse" x1="2.785" y1="102.0251" x2="201.2133" y2="102.0251">
			<stop  offset="0" style="stop-color:#222831"/>
			<stop  offset="2.661854e-02" style="stop-color:#2A373E"/>
			<stop  offset="7.738572e-02" style="stop-color:#375154"/>
			<stop  offset="0.1344" style="stop-color:#426B6A"/>
			<stop  offset="0.1976" style="stop-color:#4B847F"/>
			<stop  offset="0.2688" style="stop-color:#539891"/>
			<stop  offset="0.3521" style="stop-color:#58AAA0"/>
			<stop  offset="0.455" style="stop-color:#5BB6AA"/>
			<stop  offset="0.5993" style="stop-color:#5DC0B2"/>
			<stop  offset="1" style="stop-color:#5EC4B5"/>
		</linearGradient>
		<path class="st2" d="M201.2,102c0.2,25.5-10.1,50.8-28,69.1c-8.9,9.2-19.6,16.7-31.4,21.9c-11.8,5.2-24.7,8-37.7,8.3
			c-13,0.3-26.1-2-38.3-6.8c-12.2-4.8-23.5-12-33-21.2c-9.4-9.2-17.1-20.3-22.2-32.5c-5.1-12.2-7.8-25.5-7.8-38.7
			c0.1-13.3,2.7-26.5,7.9-38.7C15.8,51.1,23.5,40,32.9,30.8c9.5-9.2,20.8-16.4,33-21.2C78,4.8,91.1,2.6,104.1,2.8
			c13,0.3,25.9,3.1,37.7,8.3c11.8,5.2,22.5,12.7,31.4,21.9C191.1,51.2,201.4,76.6,201.2,102z M200.7,102c0-12.6-2.5-25.3-7.4-37
			c-4.8-11.7-12-22.4-21-31.3c-8.9-8.9-19.6-16.1-31.3-20.9c-11.7-4.8-24.3-7.3-36.9-7.3c-12.6,0-25.3,2.5-36.9,7.4
			c-11.7,4.8-22.3,12-31.3,20.9C27,42.8,19.9,53.5,15.1,65.1C10.2,76.8,7.8,89.4,7.8,102c0,12.6,2.5,25.2,7.3,36.9
			c4.8,11.7,12,22.4,20.9,31.3c8.9,8.9,19.6,16.1,31.3,20.9c11.7,4.9,24.3,7.3,36.9,7.4c12.6,0,25.3-2.5,36.9-7.3
			c11.7-4.8,22.4-12,31.3-20.9c8.9-8.9,16.1-19.6,21-31.3C198.2,127.3,200.7,114.7,200.7,102z"/>
	</g>
</g>
<g>
	<g class="st0">
		<path class="st1" d="M150.1,55.9h-24.7l-38,69l-21.4-0.1l15.9-90.4H57L37,147.4h37.9l-12.3,22.3h26.5l12-22.1h42l4.2,22.1h25.4
			L150.1,55.9z M117.6,125l-4.9,0l15.6-28.6c1.4-2.2,2.8-5,4.2-8.5c0,0.2,0.5,3.2,1.5,8.9l5.2,28.1H117.6z"/>
	</g>
	<g>
		<linearGradient id="SVGID_2_" gradientUnits="userSpaceOnUse" x1="169.8425" y1="102.0251" x2="34.1559" y2="102.0251">
			<stop  offset="4.528621e-07" style="stop-color:#222831"/>
			<stop  offset="8.275719e-03" style="stop-color:#232A33"/>
			<stop  offset="0.1956" style="stop-color:#364E51"/>
			<stop  offset="0.3791" style="stop-color:#457270"/>
			<stop  offset="0.555" style="stop-color:#50928B"/>
			<stop  offset="0.7211" style="stop-color:#58AAA0"/>
			<stop  offset="0.8737" style="stop-color:#5CBBAE"/>
			<stop  offset="1" style="stop-color:#5EC4B5"/>
		</linearGradient>
		<path class="st3" d="M147.2,55.9h-24.7l-38,69l-21.4-0.1L79,34.3H54.2l-20,113.1H72l-12.3,22.3h26.5l12-22.1h42l4.2,22.1h25.4
			L147.2,55.9z M114.8,125l-4.9,0l15.6-28.6c1.4-2.2,2.8-5,4.2-8.5c0,0.2,0.5,3.2,1.5,8.9l5.2,28.1H114.8z"/>
	</g>
</g>
</svg>
